<svg xmlns="http://www.w3.org/2000/svg" width="13" height="17" viewBox="0 0 13 17">
    <g fill="#2A506F" fill-rule="evenodd">
        <path d="M6.38 12.696a.893.893 0 0 1-.903-.885V.886c0-.49.403-.885.903-.885s.904.395.904.885V11.81c0 .49-.403.885-.904.885"/>
        <path d="M6.38 13.236a.893.893 0 0 1-.903-.885c0-.235.097-.46.265-.625l4.79-4.69a.912.912 0 0 1 1.277.005c.352.345.352.9 0 1.245l-4.79 4.69a.914.914 0 0 1-.639.26"/>
        <path d="M6.38 13.236a.914.914 0 0 1-.638-.26l-4.79-4.69a.867.867 0 0 1 .005-1.25.91.91 0 0 1 1.272 0l4.79 4.69a.871.871 0 0 1 0 1.25.914.914 0 0 1-.639.26zM11.859 16.047H.9a.892.892 0 0 1-.898-.885c0-.49.403-.885.898-.885H11.86c.5 0 .903.4.903.885 0 .49-.403.885-.903.885"/>
    </g>
</svg>
