<svg xmlns="http://www.w3.org/2000/svg" xmlns:xlink="http://www.w3.org/1999/xlink" width="30" height="30" viewBox="0 0 30 30">
    <defs>
        <path id="a" d="M0 0h30v30l-14.3-6L0 30V0zm24 12.5C24 7.807 20.192 4 15.5 4a8.501 8.501 0 0 0-2.689 16.568c.43.078.587-.189.587-.41 0-.21-.012-.874-.012-1.582 0 0-2.368.509-2.867-1.007 0 0-.387-.985-.94-1.24 0 0-.776-.531.055-.52 0 0 .841.067 1.306.874.742 1.307 1.982.93 2.468.709.078-.543.299-.918.542-1.14-1.893-.21-3.873-.941-3.873-4.194 0-.93.332-1.683.874-2.28-.088-.222-.377-1.086.09-2.259.708-.221 2.334.876 2.334.876a7.995 7.995 0 0 1 2.125-.29c.72 0 1.45.101 2.125.29 0 0 1.626-1.097 2.335-.876.466 1.173.177 2.037.089 2.258.543.598.874 1.35.874 2.281 0 3.264-1.992 3.984-3.884 4.193.31.267.575.775.575 1.573 0 1.139-.012 2.058-.012 2.334 0 .221.156.488.587.41C21.565 19.438 24 16.25 24 12.5z"/>
    </defs>
    <g fill="none" fill-rule="nonzero">
        <use fill="#FFF" xlink:href="#a"/>
        <use fill="#8CBD2F" xlink:href="#a"/>
    </g>
</svg>
