<svg xmlns="http://www.w3.org/2000/svg" width="37" height="41" viewBox="0 0 37 41">
    <path fill="#172C3D" fill-rule="evenodd" d="M5.458 36.538a1.485 1.485 0 0 1-1.488-1.482c0-.817.666-1.481 1.488-1.481.823 0 1.49.664 1.49 1.481 0 .818-.668 1.482-1.491 1.482h.001zM1.77 33.58v2.95a1.987 1.987 0 0 0 1.994 1.981h29.74c1.108 0 2.008-.885 2.01-1.98V33.58c.004-1.091-.889-1.978-1.994-1.981H3.781c-1.109 0-2.008.886-2.01 1.98H1.77zM2.472 2.96C2.554 1.87 3.52.988 4.619.988h27.762c1.104 0 2.065.88 2.147 1.972l2.458 32.605c.204 2.718-1.876 4.923-4.637 4.923H4.65c-2.765 0-4.841-2.209-4.636-4.923L2.472 2.96z" opacity=".3"/>
</svg>
