<svg xmlns="http://www.w3.org/2000/svg" xmlns:xlink="http://www.w3.org/1999/xlink" width="38" height="41" viewBox="0 0 38 41">
    <defs>
        <path id="a" d="M0 0h37.434V40.49H0z"/>
    </defs>
    <g fill="none" fill-rule="evenodd">
        <mask id="b" fill="#fff">
            <use xlink:href="#a"/>
        </mask>
        <path fill="#FFF" d="M16.517 27.104c0 1.219.965 2.173 2.2 2.173 1.215 0 2.2-.973 2.2-2.173v-5.298H26.4c1.17.003 2.12-.93 2.123-2.084v-.012c-.01-1.154-.955-2.087-2.123-2.097h-5.48v-5.299c0-1.2-.986-2.172-2.2-2.172-1.237 0-2.2.953-2.2 2.172v5.3h-5.483c-1.168.01-2.113.942-2.123 2.096 0 1.18.965 2.096 2.123 2.096h5.481v5.298zm20.917-13.872v14.032a6.17 6.17 0 0 1-3.165 5.374L21.886 39.66a6.456 6.456 0 0 1-6.329 0L3.173 32.638A6.182 6.182 0 0 1 0 27.264V13.232a6.182 6.182 0 0 1 3.173-5.375L15.557.836a6.413 6.413 0 0 1 6.33 0l12.382 7.02a6.172 6.172 0 0 1 3.165 5.376z" mask="url(#b)"/>
    </g>
</svg>
